<?xml version="1.0" standalone="no"?>
<!DOCTYPE svg PUBLIC "-//W3C//DTD SVG 20010904//EN"
 "http://www.w3.org/TR/2001/REC-SVG-20010904/DTD/svg10.dtd">
<svg version="1.0" xmlns="http://www.w3.org/2000/svg"
 width="512.000000pt" height="512.000000pt" viewBox="0 0 512.000000 512.000000"
 preserveAspectRatio="xMidYMid meet">
<metadata>
Created by potrace 1.11, written by Peter Selinger 2001-2013
</metadata>
<g transform="translate(0.000000,512.000000) scale(0.100000,-0.100000)"
fill="#000000" stroke="none">
<path d="M980 4899 c-124 -24 -244 -122 -303 -246 l-32 -68 -3 -2005 c-2
-2193 -6 -2054 54 -2155 56 -96 174 -181 282 -204 70 -15 3074 -16 3153 -1
133 25 252 119 312 247 30 65 32 75 34 203 2 127 2 132 -10 85 -39 -146 -147
-262 -283 -305 -65 -20 -88 -20 -1565 -20 -1352 0 -1503 2 -1546 16 -91 31
-167 105 -198 194 -8 24 -14 45 -12 46 2 2 28 -6 58 -19 l54 -22 1549 -3
c1029 -1 1568 1 1605 8 162 30 299 160 335 320 9 38 16 106 15 152 l0 83 -18
-55 c-45 -142 -174 -258 -319 -289 -38 -8 -488 -11 -1582 -11 -1513 0 -1595 2
-1653 32 -17 9 -17 11 -1 36 31 50 68 83 128 112 l59 30 1487 0 c1033 0 1504
3 1546 11 137 25 249 110 311 237 l38 76 3 1575 c2 1118 -1 1589 -8 1620 -39
156 -173 287 -328 320 -65 13 -3092 14 -3162 0z"/>
</g>
</svg>
